HIERARCHY
ROOT Hips
{
	OFFSET 0.00000 0.00000 0.00000
	CHANNELS 6 Xposition Yposition Zposition Yrotation Zrotation Xrotation 
	JOINT Lumbar
	{
		OFFSET 0 0 0
		CHANNELS 3 Zrotation Xrotation Yrotation
		JOINT Neck
		{
			OFFSET 0.00 0.2701 0.00
			CHANNELS 3 Zrotation Xrotation Yrotation
			End Site
			{
				OFFSET 0.00 0.1379 0.00
			}
		}
		JOINT RightShoulder
		{
			OFFSET 0.0119 0.2289 0.1181
			CHANNELS 3 Zrotation Xrotation Yrotation
			JOINT RightElbow
			{
				OFFSET 0.00 -0.1475 0.00
				CHANNELS 2 Zrotation Yrotation
				JOINT RightWrist
				{
					OFFSET 0.00 -0.1605 0.00
					CHANNELS 2 Zrotation Xrotation
					End Site
					{
						OFFSET 0.0040 -0.1068 0.0006
					}
				}
			}
		}
		JOINT LeftShoulder
		{
			OFFSET 0.0119 0.2289 -0.1181
			CHANNELS 3 Zrotation Xrotation Yrotation
			JOINT LeftElbow
			{
				OFFSET 0.00 -0.1475 0.00
				CHANNELS 2 Zrotation Yrotation
				JOINT LeftWrist
				{
					OFFSET 0.00 -0.1605 0.00
					CHANNELS 2 Zrotation Xrotation
					End Site
					{
						OFFSET 0.0040 -0.1068 -0.0006
					}
				}
			}
		}
	}
	JOINT RightHip
	{
		OFFSET 0.0316 -0.0424 0.0458
		CHANNELS 3 Zrotation Xrotation Yrotation
		JOINT RightKnee
		{
			OFFSET 0.00 -0.2438 0.00
			CHANNELS 1 Zrotation
			JOINT RightAnkle
			{
				OFFSET 0.00 -0.2449 0.00
				CHANNELS 3 Zrotation Xrotation Yrotation
				End Site
				{
					OFFSET 0.1237 -0.0542 0.0051
				}
			}
		}
	}
	JOINT LeftHip
	{
		OFFSET 0.0316 -0.0424 -0.0458
		CHANNELS 3 Zrotation Xrotation Yrotation
		JOINT LeftKnee
		{
			OFFSET 0.00 -0.2438 0.00
			CHANNELS 1 Zrotation
			JOINT LeftAnkle
			{
				OFFSET 0.00 -0.2449 0.00
				CHANNELS 3 Zrotation Xrotation Yrotation
				End Site
				{
					OFFSET 0.1237 -0.0542 -0.0051
				}
			}
		}
	}
}
MOTION
Frames: 31
Frame Time: 0.02
-7e-05 -1e-05 -0.00013 16.71754 -35.13593 -3.64983 55.98796 2.19239 2.77107 0.05102 -2.63274 -0.15005 118.08031 -73.8102 -90.01008 14.85611 75.2428 6.52626 -6.17225 108.44659 77.96303 90.00436 6.32675 -78.81873 1.27335 5.8494 49.55896 -2.75826 0.88869 -18.77583 -7.98227 -4.91221 -3.34818 50.35035 6.68341 4.33418 -23.87476 -8.39956 4.92998 3.38379
5e-05 -0 -0.00014 16.7242 -35.10927 -3.64706 56.02003 2.18858 2.7755 0.00326 -2.66065 -0.14955 118.48562 -73.84649 -90.01021 14.7968 75.27148 6.63267 -6.07873 109.51085 77.86133 90.00507 6.4125 -78.84141 1.33605 5.77216 49.51524 -2.80611 0.58434 -18.77487 -7.95557 -4.88991 -3.33049 50.31145 6.67523 4.27925 -23.87588 -8.40062 4.93654 3.38539
0.00017 0 -0.00016 16.73083 -35.08265 -3.64429 56.05202 2.18479 2.78001 -0.04446 -2.68846 -0.14906 118.88997 -73.88273 -90.01034 14.73756 75.3001 6.73885 -5.98534 110.57187 77.75997 90.00575 6.49774 -78.86402 1.39854 5.69497 49.47162 -2.85393 0.28014 -18.77392 -7.92889 -4.86757 -3.3128 50.27263 6.66703 4.22427 -23.87699 -8.40169 4.9431 3.38701
0.0003 0 -0.00017 16.73746 -35.05606 -3.64152 56.08399 2.181 2.78444 -0.0921 -2.71628 -0.14856 119.29418 -73.91892 -90.01047 14.67842 75.32871 6.84496 -5.89207 111.63296 77.65858 90.00654 6.58319 -78.88664 1.46106 5.61793 49.42803 -2.90165 -0.02344 -18.77296 -7.90226 -4.84531 -3.29515 50.23384 6.65886 4.16946 -23.8781 -8.40275 4.94964 3.38861
0.00042 1e-05 -0.00018 16.74414 -35.02943 -3.63875 56.11601 2.1772 2.78875 -0.13973 -2.7442 -0.14807 119.69894 -73.95516 -90.01061 14.61924 75.35734 6.95123 -5.79878 112.69698 77.55684 90.00713 6.66923 -78.9093 1.52376 5.54091 49.38437 -2.94934 -0.32677 -18.77199 -7.87565 -4.82313 -3.27753 50.19498 6.65074 4.11483 -23.87922 -8.40378 4.95618 3.39019
0.00054 1e-05 -0.00019 16.75066 -35.00283 -3.63598 56.14796 2.17341 2.79365 -0.18763 -2.77176 -0.14758 120.10226 -73.99137 -90.01072 14.55987 75.38592 7.05718 -5.70522 113.75148 77.4563 90.00784 6.75277 -78.93176 1.58576 5.46339 49.34084 -2.99744 -0.63272 -18.77107 -7.8488 -4.80048 -3.2597 50.15623 6.64239 4.05913 -23.88032 -8.40496 4.9628 3.39186
0.00066 1e-05 -0.0002 16.75748 -34.97621 -3.63321 56.18002 2.16962 2.79739 -0.23495 -2.80003 -0.14707 120.50875 -74.02759 -90.01087 14.50098 75.41465 7.16376 -5.61218 114.82467 77.35342 90.00897 6.84126 -78.95472 1.64921 5.38691 49.29709 -3.04469 -0.93333 -18.77006 -7.82245 -4.77877 -3.24228 50.11731 6.63448 4.00556 -23.88144 -8.40584 4.96924 3.39336
0.00079 1e-05 -0.00021 16.76404 -34.9496 -3.63045 56.21197 2.16581 2.80217 -0.28278 -2.82762 -0.14659 120.91104 -74.06382 -90.01099 14.44158 75.44307 7.26956 -5.51891 115.87937 77.25279 90.00852 6.92519 -78.97699 1.71112 5.3096 49.25354 -3.09264 -1.23836 -18.76913 -7.79568 -4.75625 -3.22453 50.07854 6.6262 3.95016 -23.88255 -8.40698 4.97584 3.39501
0.00091 2e-05 -0.00022 16.77023 -34.92303 -3.62768 56.24384 2.16203 2.80833 -0.3314 -2.85449 -0.14612 121.31346 -74.10001 -90.01108 14.38178 75.47184 7.37529 -5.42427 116.9169 77.15451 90.01087 7.00349 -78.99934 1.77199 5.23069 49.21021 -3.14184 -1.55108 -18.76829 -7.7682 -4.73247 -3.2062 50.03996 6.61734 3.89194 -23.88364 -8.40851 4.98267 3.39688
0.00103 2e-05 -0.00023 16.77837 -34.89629 -3.62491 56.27633 2.15825 2.80688 -0.37597 -2.88581 -0.14553 121.73099 -74.13627 -90.01137 14.32494 75.50078 7.48408 -5.33422 118.0696 77.04152 90.0113 7.11403 -79.02398 1.84136 5.15922 49.16553 -3.18503 -1.82643 -18.7669 -7.74422 -4.71513 -3.19068 50.00029 6.61141 3.84817 -23.88482 -8.408 4.98829 3.39758
0.00115 2e-05 -0.00024 16.78254 -34.86989 -3.62214 56.30742 2.15438 2.82128 -0.42874 -2.90758 -0.14519 122.10642 -74.17248 -90.01123 14.26146 75.52796 7.58466 -5.23661 118.96873 76.9603 90.00674 7.15665 -79.04204 1.89118 5.07318 49.12376 -3.24013 -2.17614 -18.76671 -7.71323 -4.68473 -3.16954 49.96295 6.59956 3.77507 -23.88583 -8.41167 4.99638 3.40068
0.00123 1e-05 -0.00021 16.77454 -34.84446 -3.61942 56.33544 2.15102 2.88146 -0.50716 -2.90404 -0.14555 122.44308 -74.20669 -90.00972 14.18253 75.55737 7.67873 -5.10113 119.243 76.96047 90.02226 7.01067 -79.04982 1.89571 4.93477 49.08932 -3.33462 -2.76997 -18.76937 -7.65977 -4.61358 -3.13023 49.93157 6.56908 3.61069 -23.88612 -8.42817 5.01218 3.41105
0.00129 0 -0.00018 16.7628 -34.8193 -3.61672 56.36194 2.14748 2.95717 -0.5933 -2.89061 -0.14615 122.7189 -74.2404 -90.00776 14.09617 75.58076 7.76278 -4.96158 119.24313 76.99317 89.9988 6.79721 -79.0451 1.87603 4.78222 49.05785 -3.43993 -3.43172 -18.77329 -7.59983 -4.53015 -3.08572 49.90256 6.53303 3.4185 -23.88627 -8.44869 5.03032 3.42371
0.00136 -0 -0.00014 16.75361 -34.79406 -3.61396 56.38861 2.14348 3.02424 -0.67379 -2.88126 -0.14661 122.97795 -74.27654 -90.0062 14.01177 75.60603 7.83944 -4.8346 119.33052 77.01534 90.00648 6.61568 -79.04669 1.8658 4.64651 49.02551 -3.53576 -4.03533 -18.77691 -7.54505 -4.45566 -3.04544 49.87276 6.50119 3.24651 -23.88665 -8.46646 5.04675 3.43481
0.00144 -1e-05 -0.00012 16.7408 -34.7689 -3.61133 56.41738 2.1416 3.09788 -0.76311 -2.87414 -0.14719 123.44219 -74.30661 -90.00403 13.93446 75.64695 7.96158 -4.66088 119.60113 77.02145 90.07138 6.42736 -79.06389 1.87446 4.47417 48.99137 -3.65044 -4.75138 -18.77943 -7.48112 -4.36726 -2.9975 49.84188 6.46252 3.04397 -23.88634 -8.48794 5.0658 3.44801
0.0015 -3e-05 -8e-05 16.73467 -34.7433 -3.60853 56.44152 2.1355 3.16169 -0.83612 -2.85941 -0.14758 123.44235 -74.34517 -90.00276 13.83921 75.63872 7.9928 -4.58539 119.39229 77.06643 89.86497 6.23883 -79.0227 1.82249 4.36555 48.96139 -3.72897 -5.25288 -18.78452 -7.43444 -4.30453 -2.96402 49.81364 6.43641 2.89668 -23.88743 -8.50286 5.08009 3.4575
0.00155 -7e-05 1e-05 16.7482 -34.71909 -3.60422 56.45197 2.1156 3.19306 -0.85879 -2.83136 -0.1473 122.36637 -74.43825 -90.00424 13.70747 75.62944 7.72198 -4.76544 118.21291 77.22433 90.19263 6.05648 -79.03227 1.74503 4.51932 48.94468 -3.70017 -5.11422 -18.79675 -7.4394 -4.31937 -2.97388 49.7937 6.44965 2.92524 -23.89249 -8.49694 5.07959 3.45526
0.00158 -0.00013 0.0001 16.7688 -34.69383 -3.59985 56.4578 2.09174 3.2143 -0.86459 -2.79506 -0.14683 120.78998 -74.5317 -90.00522 13.55522 75.54877 7.36966 -5.04676 116.5106 77.41358 90.04687 5.88097 -78.95346 1.58399 4.72491 48.93155 -3.63557 -4.76289 -18.81155 -7.46151 -4.35984 -2.99808 49.77602 6.47519 3.00795 -23.899 -8.48454 5.07436 3.44934
0.00162 -0.00019 0.0002 16.78565 -34.66744 -3.59627 56.4669 2.07134 3.24115 -0.88142 -2.75901 -0.1465 119.31771 -74.60773 -90.00812 13.40583 75.40997 7.0901 -5.29378 114.85554 77.58476 89.23672 5.70505 -78.76678 1.36951 4.84894 48.91517 -3.59049 -4.52957 -18.82489 -7.47414 -4.38614 -3.01424 49.75627 6.49285 3.05425 -23.90476 -8.47637 5.07209 3.4458
0.00169 -0.00025 0.00029 16.80354 -34.64828 -3.58975 56.47206 2.04451 3.26425 -0.88771 -2.73718 -0.14597 118.36353 -74.76646 -90.00959 13.28607 75.64213 6.66071 -5.49469 113.9803 77.79002 91.99022 5.50347 -79.16793 1.53202 5.20631 48.90591 -3.53188 -4.20927 -18.83924 -7.49353 -4.42251 -3.03653 49.74109 6.51971 3.14673 -23.91072 -8.46324 5.06677 3.43957
0.00168 -0.0003 0.00038 16.82236 -34.61325 -3.58896 56.48303 2.02941 3.2926 -0.9076 -2.68414 -0.14581 116.21262 -74.74061 -90.00673 13.09653 75.09885 6.5225 -5.81133 111.37835 77.91025 87.39519 5.37275 -78.36994 0.90001 5.10407 48.88244 -3.49305 -4.0177 -18.85242 -7.50314 -4.44436 -3.04967 49.71681 6.53073 3.15958 -23.91684 -8.45844 5.06632 3.43779
0.00146 -0.00034 0.00045 16.83048 -34.53964 -3.60751 56.5219 2.05366 3.33686 -1.0039 -2.54532 -0.14663 110.88002 -74.30767 -90.01971 12.74961 72.32042 7.20669 -6.45987 103.98598 77.96578 61.00906 5.3085 -73.88442 -1.99516 3.59996 48.82033 -3.51536 -4.24205 -18.85863 -7.48045 -4.4181 -3.03298 49.66766 6.49207 2.91037 -23.92113 -8.48173 5.0832 3.45128
0.00117 -0.00038 0.00051 16.84156 -34.44923 -3.63121 56.56442 2.08865 3.38656 -1.10685 -2.37608 -0.14788 104.36426 -73.66754 -89.99979 12.32899 68.79199 8.1759 -7.21393 94.90752 77.8998 27.53454 5.33914 -68.26776 -5.67113 1.6536 48.74348 -3.55913 -4.60122 -18.86407 -7.44758 -4.37676 -3.00684 49.60915 6.43759 2.58439 -23.92585 -8.51299 5.10462 3.46899
0.0009 -0.00043 0.00058 16.85876 -34.36318 -3.65022 56.5987 2.11494 3.4348 -1.18533 -2.22144 -0.1489 98.38545 -73.0578 -90.00643 11.92047 65.67097 9.02994 -7.89603 86.6957 77.77457 -1.62129 5.41069 -63.43218 -8.92948 -0.01099 48.6724 -3.59459 -4.89298 -18.87197 -7.42007 -4.34351 -2.98573 49.55432 6.39233 2.31305 -23.93167 -8.53826 5.12219 3.48338
0.00067 -0.00043 0.00064 16.84431 -34.29069 -3.67901 56.66207 2.15761 3.47974 -1.35827 -2.06177 -0.14986 92.37698 -72.72651 -90.05999 11.59567 62.23728 9.86644 -8.6852 78.02466 78.13985 -35.38092 5.12897 -57.47332 -12.45184 -2.0132 48.60541 -3.62299 -5.20391 -18.87134 -7.38995 -4.30583 -2.96194 49.50183 6.339 1.96143 -23.93219 -8.57319 5.14719 3.50354
0.00034 -0.00053 0.00073 16.89688 -34.18627 -3.68884 56.66392 2.16829 3.53131 -1.3306 -1.90726 -0.15128 86.17503 -71.75448 -89.88769 11.08664 59.31418 10.75061 -9.27233 69.93788 77.44655 -61.28569 5.60389 -53.57766 -15.61362 -3.41996 48.52629 -3.67131 -5.50892 -18.88791 -7.36274 -4.27356 -2.94136 49.4424 6.29847 1.75653 -23.94367 -8.59011 5.15782 3.51277
-0.00025 -0.00093 0.00091 17.12926 -33.99545 -3.64361 56.51112 2.09233 3.61463 -0.79595 -1.75915 -0.1518 79.56695 -69.16407 -90.16322 10.02936 57.66171 12.20817 -9.30024 63.69873 73.9261 -63.26507 8.16246 -55.73602 -17.53905 -3.05617 48.41807 -3.77226 -5.77227 -18.95513 -7.34501 -4.25916 -2.93141 49.36453 6.29787 1.9884 -23.98691 -8.55435 5.12791 3.49057
-0.00094 -0.00142 0.00113 17.4295 -33.77367 -3.57948 56.29341 1.98324 3.70212 -0.0505 -1.62017 -0.15313 72.83828 -65.9188 -90.0379 8.80407 56.60194 13.62138 -9.11709 58.14276 69.3335 -57.1829 11.4778 -59.99593 -19.07908 -2.08152 48.29818 -3.89205 -6.02466 -19.03914 -7.33067 -4.25073 -2.92503 49.28036 6.31054 2.36768 -24.04085 -8.50047 5.08341 3.45732
-0.00159 -0.00186 0.00134 17.70201 -33.56742 -3.52484 56.09471 1.88624 3.77756 0.63064 -1.48708 -0.15544 66.27236 -62.90561 -89.36832 7.68844 55.49255 14.70384 -9.01272 52.39223 65.18625 -55.12164 14.43281 -63.24079 -20.83327 -1.39861 48.18286 -4.00162 -6.27814 -19.1135 -7.31533 -4.23999 -2.91731 49.19996 6.31653 2.67109 -24.08886 -8.45552 5.04538 3.42926
-0.00223 -0.00235 0.00151 17.96277 -33.35382 -3.4662 55.9399 1.80129 3.8944 1.17991 -1.31056 -0.15213 59.20648 -60.15543 -91.66632 6.41318 53.46064 17.22586 -8.98038 46.08883 61.20546 -51.81226 17.45278 -66.69671 -22.46819 -0.67131 48.06932 -4.1193 -6.55262 -19.19629 -7.29731 -4.22711 -2.90811 49.115 6.32452 3.01029 -24.14146 -8.40766 5.00798 3.4005
-0.0029 -0.00276 0.00177 18.26249 -33.14917 -3.4118 55.67886 1.6843 3.92801 2.05237 -1.22704 -0.16063 53.17208 -56.71264 -87.81164 5.45209 53.46135 16.80022 -8.75162 41.12664 56.6327 -49.0798 20.52551 -70.23018 -24.22709 0.11419 47.9505 -4.22381 -6.77903 -19.26558 -7.28587 -4.22022 -2.90291 49.03869 6.33193 3.30976 -24.18696 -8.36176 4.96601 3.37069
